<?xml version="1.0" encoding="utf-8"?>
<!-- Generator: Adobe Illustrator 16.2.0, SVG Export Plug-In . SVG Version: 6.00 Build 0)  -->
<!DOCTYPE svg PUBLIC "-//W3C//DTD SVG 1.1//EN" "http://www.w3.org/Graphics/SVG/1.1/DTD/svg11.dtd">
<svg version="1.1" id="Layer_1" xmlns="http://www.w3.org/2000/svg" xmlns:xlink="http://www.w3.org/1999/xlink" x="0px" y="0px"
	 width="49.3px" height="36.9px" viewBox="0 0 49.3 36.9" style="enable-background:new 0 0 49.3 36.9;" xml:space="preserve">
<linearGradient id="SVGID_1_" gradientUnits="userSpaceOnUse" x1="24.6655" y1="-10.876" x2="24.6655" y2="48.5003">
	<stop  offset="0" style="stop-color:#0B91CD"/>
	<stop  offset="0.4676" style="stop-color:#1C7FAD"/>
	<stop  offset="1" style="stop-color:#1B5B80"/>
</linearGradient>
<path style="fill:url(#SVGID_1_);" d="M5.9,33.8h37.6L31.1,21.1l-2.3,2.4c-1,1-2.5,1.6-4,1.6c0,0,0,0,0,0c-1.5,0-3-0.6-4-1.6
	L18.4,21L5.9,33.8L5.9,33.8z M3.5,6v25.3l12.5-12.7L3.5,6L3.5,6z M33.5,18.7l12.3,12.6v-25L33.5,18.7L33.5,18.7z M5.9,3.5L23.2,21
	c0.4,0.4,0.9,0.6,1.6,0.6h0c0.6,0,1.2-0.2,1.6-0.6L43.7,3.5H5.9L5.9,3.5z M49.3,34c0,1.6-1.3,2.8-2.8,2.8H2.8C1.3,36.9,0,35.6,0,34
	V2.8C0,1.3,1.3,0,2.8,0h43.7c1.6,0,2.8,1.3,2.8,2.8V34z"/>
</svg>
