<!DOCTYPE svg PUBLIC "-//W3C//DTD SVG 1.1//EN" "http://www.w3.org/Graphics/SVG/1.1/DTD/svg11.dtd">
<svg xmlns="http://www.w3.org/2000/svg" xmlns:xlink="http://www.w3.org/1999/xlink" version="1.1" id="Layer_1" x="0px" y="0px" viewBox="0 0 43.3 43.3" style="enable-background:new 0 0 43.3 43.3;" xml:space="preserve">
<path style="fill:#010101;" d="M0.7,33.7c0,4.9,4,9,9,9h24.1c4.9,0,9-4,9-9V9.6c0-4.9-4-9-9-9H9.6c-4.9,0-9,4-9,9V33.7z"/>
<g>
    
        <linearGradient id="SVGID_1_" gradientUnits="userSpaceOnUse" x1="13.3008" y1="16.4248" x2="13.3008" y2="-7.3218" gradientTransform="matrix(1 0 0 -1 8.3999 19.4248)">
        <stop offset="0" style="stop-color:#636362"/>
        <stop offset="1" style="stop-color:#000000"/>
    </linearGradient>
    <path style="fill:url(#SVGID_1_);" d="M40.2,26.8V11.5c0-4.7-3.5-8.5-7.9-8.5H11.1c-4.4,0-7.9,3.8-7.9,8.5v15.2   c4.4-5.8,11-9.5,18.5-9.5C29.2,17.3,35.9,21,40.2,26.8"/>
    
        <linearGradient id="SVGID_2_" gradientUnits="userSpaceOnUse" x1="-10.8833" y1="6.0659" x2="21.6452" y2="-26.4626" gradientTransform="matrix(1 0 0 -1 8.3999 19.4248)">
        <stop offset="0" style="stop-color:#181818"/>
        <stop offset="0.5161" style="stop-color:#8D8B8C"/>
        <stop offset="1" style="stop-color:#181818"/>
    </linearGradient>
    <path style="fill:url(#SVGID_2_);" d="M2.2,32.5c0,4.2,3.4,7.7,7.7,7.7h22.7c2.6,0,4.8-1.3,6.2-3.2c-1.3,0.9-2.8,1.5-4.5,1.5H11.6   c-4.2,0-7.7-3.4-7.7-7.7V10.1c0-1.7,0.5-3.2,1.5-4.5C3.5,7,2.2,9.3,2.2,11.8V32.5L2.2,32.5z"/>
    
        <linearGradient id="SVGID_3_" gradientUnits="userSpaceOnUse" x1="-3.5" y1="-0.9253" x2="32.9575" y2="-0.9253" gradientTransform="matrix(1 0 0 -1 8.3999 19.4248)">
        <stop offset="0" style="stop-color:#636362"/>
        <stop offset="1" style="stop-color:#000000"/>
    </linearGradient>
    <path style="opacity:0.5;fill:url(#SVGID_3_);enable-background:new    ;" d="M41.4,10.7C41.4,6.4,38,3,33.8,3H11.1   C8.5,3,6.3,4.2,4.9,6.2c1.3-0.9,2.8-1.5,4.5-1.5H32c4.2,0,7.6,3.5,7.6,7.7v20.8c0,1.7-0.5,3.3-1.5,4.5c1.9-1.4,3.2-3.7,3.2-6.3   L41.4,10.7L41.4,10.7z"/>
</g>
<path style="fill:none;stroke:#747171;stroke-width:1.3249;stroke-miterlimit:2.6131;" d="M0.7,33.7c0,4.9,4,9,9,9h24.1  c4.9,0,9-4,9-9V9.6c0-4.9-4-9-9-9H9.6c-4.9,0-9,4-9,9V33.7z"/>


</svg>